999
DXF file: D:\FIPMIK\S9\100-Projet_4_Innovation_et_Recherche\creo\Livrables\DXF\320-bossard_bn619_vis_m10x20_l.dxf
999
Pro/ENGINEER 2022014 by Parametric Technology Corporation
  0
SECTION
  2
HEADER
  9
$ACADVER
  1
AC1021
  9
$DWGCODEPAGE
  3
ANSI_1252
  9
$EXTMAX
 10
210.0
 20
297.0
 30
0.0
  9
$EXTMIN
 10
0.0
 20
0.0
 30
0.0
  9
$LIMMIN
 10
0.0
 20
0.0
  9
$LIMMAX
 10
210.0
 20
297.0
  9
$VIEWCTR
 10
105.0
 20
148.5
  9
$VIEWSIZE
 40
297.0
  9
$CLAYER
  8
0
  9
$LTSCALE
 40
19.36
  9
$CELTYPE
  6
BYLAYER
  9
$DIMSCALE
 40
1.0
  9
$DIMASZ
 40
3.5
  9
$DIMEXO
 40
1.0
  9
$DIMDLI
 40
13.376
  9
$DIMEXE
 40
1.5
  9
$DIMCEN
 40
3.168
  9
$DIMLFAC
 40
1.0
  9
$DIMBLK
  1
_OPEN
  9
$DIMALT
 70
0
  9
$DIMALTF
 40
0.0393700787
  9
$DIMTXT
 40
3.5
  9
$DIMTOL
 70
1
  9
$DIMLIM
 70
0
  9
$DIMTFAC
 40
1.0
  9
$DIMTP
 40
0.001
  9
$DIMTM
 40
0.001
  9
$DIMGAP
 40
0.625
  9
$DIMDSEP
 70
44
  9
$AUNITS
 70
0
  9
$PDMODE
 70
3
  9
$PDSIZE
 40
8.0
  9
$HANDSEED
  5
2F4
  9
$TILEMODE
 70
1
  9
$MEASUREMENT
 70
1
  9
$INSUNITS
 70
4
  0
ENDSEC
  0
SECTION
  2
CLASSES
  0
CLASS
  1
ACDBDICTIONARYWDFLT
  2
AcDbDictionaryWithDefault
  3
AutoCAD 2000
 90
0
 91
1
280
0
281
0
  0
CLASS
  1
ACDBPLACEHOLDER
  2
AcDbPlaceHolder
  3
AutoCAD 2000
 90
0
 91
1
280
0
281
0
  0
CLASS
  1
LAYOUT
  2
AcDbLayout
  3
AutoCAD 2000
 90
0
 91
0
280
0
281
0
  0
CLASS
  1
RASTERVARIABLES
  2
AcDbRasterVariables
  3
ISM
 90
0
 91
1
280
0
281
0
  0
CLASS
  1
IMAGEDEF
  2
AcDbRasterImageDef
  3
ISM
 90
0
 91
1
280
0
281
0
  0
CLASS
  1
IMAGEDEF_REACTOR
  2
AcDbRasterImageDefReactor
  3
ISM
 90
0
 91
1
280
0
281
0
  0
CLASS
  1
IMAGE
  2
AcDbRasterImage
  3
ISM
 90
127
 91
1
280
0
281
1
  0
CLASS
  1
TABLESTYLE
  2
AcDbTableStyle
  3
ObjectDBX Classes
 90
2047
 91
1
280
0
281
0
  0
CLASS
  1
ACAD_TABLE
  2
AcDbTable
  3
ObjectDBX Classes
 90
1025
 91
1
280
0
281
1
  0
ENDSEC
  0
SECTION
  2
TABLES
  0
TABLE
  2
VPORT
  5
8
100
AcDbSymbolTable
 70
2
  0
VPORT
  5
1F4
100
AcDbSymbolTableRecord
100
AcDbViewportTableRecord
  2
*ACTIVE
 70
0
 10
0.0
 20
0.0
 11
1.0
 21
1.0
 12
105.0
 22
148.5
 13
0.0
 23
0.0
 14
1.0
 24
1.0
 15
0.0
 25
0.0
 16
0.0
 26
0.0
 36
1.0
 17
0.0
 27
0.0
 37
0.0
 40
297.0
 41
0.7070707071
 42
50.0
 43
0.0
 44
0.0
 50
0.0
 51
0.0
 71
0
 72
100
 73
1
 74
1
 75
0
 76
0
 77
0
 78
0
  0
ENDTAB
  0
TABLE
  2
LTYPE
  5
5
100
AcDbSymbolTable
 70
6
  0
LTYPE
  5
14
100
AcDbSymbolTableRecord
100
AcDbLinetypeTableRecord
  2
BYBLOCK
 70
0
  3

 72
65
 73
0
 40
0.0
  0
LTYPE
  5
15
100
AcDbSymbolTableRecord
100
AcDbLinetypeTableRecord
  2
BYLAYER
 70
0
  3

 72
65
 73
0
 40
0.0
  0
LTYPE
  5
16
100
AcDbSymbolTableRecord
100
AcDbLinetypeTableRecord
  2
CONTINUOUS
 70
64
  3
Solid line
 72
65
 73
0
 40
0.0
  0
LTYPE
  5
1F5
100
AcDbSymbolTableRecord
100
AcDbLinetypeTableRecord
  2
CENTER
 70
64
  3
____ _ ____ _ ____ _ ____ _ ____ _ ____ _ ____
 72
65
 73
4
 40
0.6
 49
0.375
 74
0
 49
-0.075
 74
0
 49
0.075
 74
0
 49
-0.075
 74
0
  0
LTYPE
  5
1F6
100
AcDbSymbolTableRecord
100
AcDbLinetypeTableRecord
  2
HIDDEN
 70
64
  3
- - - - - - - - - - - - - - - - - - - -
 72
65
 73
2
 40
0.2
 49
0.1
 74
0
 49
-0.1
 74
0
  0
LTYPE
  5
1F7
100
AcDbSymbolTableRecord
100
AcDbLinetypeTableRecord
  2
PHANTOM
 70
64
  3
_____ _ _ _____ _ _ _____ _ _ _____
 72
65
 73
6
 40
0.8
 49
0.45
 74
0
 49
-0.05
 74
0
 49
0.1
 74
0
 49
-0.05
 74
0
 49
0.1
 74
0
 49
-0.05
 74
0
  0
LTYPE
  5
1F8
100
AcDbSymbolTableRecord
100
AcDbLinetypeTableRecord
  2
DOT
 70
64
  3
. . . . . . . . . . . . . . . . . . . .
 72
65
 73
2
 40
0.2
 49
0.1
 74
0
 49
-0.1
 74
0
  0
LTYPE
  5
1F9
100
AcDbSymbolTableRecord
100
AcDbLinetypeTableRecord
  2
DASHED
 70
64
  3
- - - - - - - - - - - - - - - - - - - -
 72
65
 73
2
 40
0.2
 49
0.1
 74
0
 49
-0.1
 74
0
  0
ENDTAB
  0
TABLE
  2
LAYER
  5
2
100
AcDbSymbolTable
 70
36
  0
LAYER
  5
10
100
AcDbSymbolTableRecord
100
AcDbLayerTableRecord
  2
0
 70
0
 62
7
  6
CONTINUOUS
370
-3
390
F
  0
LAYER
  5
1FA
100
AcDbSymbolTableRecord
100
AcDbLayerTableRecord
  2
DEFAULT_1
 70
0
 62
7
  6
CENTER
370
-3
390
F
  0
LAYER
  5
1FB
100
AcDbSymbolTableRecord
100
AcDbLayerTableRecord
  2
DEFAULT_2
 70
0
 62
8
  6
HIDDEN
370
-3
390
F
  0
LAYER
  5
1FC
100
AcDbSymbolTableRecord
100
AcDbLayerTableRecord
  2
DEFAULT_3
 70
0
 62
7
  6
PHANTOM
370
-3
390
F
  0
LAYER
  5
1FD
100
AcDbSymbolTableRecord
100
AcDbLayerTableRecord
  2
01___PRT_ALL_DTM_PLN
 70
0
 62
7
  6
CONTINUOUS
370
-3
390
F
  0
LAYER
  5
1FE
100
AcDbSymbolTableRecord
100
AcDbLayerTableRecord
  2
01___PRT_DEF_DTM_PLN
 70
0
 62
7
  6
CONTINUOUS
370
-3
390
F
  0
LAYER
  5
1FF
100
AcDbSymbolTableRecord
100
AcDbLayerTableRecord
  2
02___PRT_ALL_AXES
 70
0
 62
7
  6
CONTINUOUS
370
-3
390
F
  0
LAYER
  5
200
100
AcDbSymbolTableRecord
100
AcDbLayerTableRecord
  2
03___PRT_ALL_CURVES
 70
0
 62
7
  6
CONTINUOUS
370
-3
390
F
  0
LAYER
  5
201
100
AcDbSymbolTableRecord
100
AcDbLayerTableRecord
  2
04___PRT_ALL_DTM_PNT
 70
0
 62
7
  6
CONTINUOUS
370
-3
390
F
  0
LAYER
  5
202
100
AcDbSymbolTableRecord
100
AcDbLayerTableRecord
  2
05___PRT_ALL_DTM_CSYS
 70
0
 62
7
  6
CONTINUOUS
370
-3
390
F
  0
LAYER
  5
203
100
AcDbSymbolTableRecord
100
AcDbLayerTableRecord
  2
05___PRT_DEF_DTM_CSYS
 70
0
 62
7
  6
CONTINUOUS
370
-3
390
F
  0
LAYER
  5
204
100
AcDbSymbolTableRecord
100
AcDbLayerTableRecord
  2
06___PRT_ALL_SURFS
 70
0
 62
7
  6
CONTINUOUS
370
-3
390
F
  0
LAYER
  5
205
100
AcDbSymbolTableRecord
100
AcDbLayerTableRecord
  2
2D_ENTITES
 70
0
 62
7
  6
CONTINUOUS
370
-3
390
F
  0
LAYER
  5
206
100
AcDbSymbolTableRecord
100
AcDbLayerTableRecord
  2
2D_LIGNES_CONSTR
 70
0
 62
7
  6
CONTINUOUS
370
-3
390
F
  0
LAYER
  5
207
100
AcDbSymbolTableRecord
100
AcDbLayerTableRecord
  2
2D_NOTES
 70
0
 62
7
  6
CONTINUOUS
370
-3
390
F
  0
LAYER
  5
208
100
AcDbSymbolTableRecord
100
AcDbLayerTableRecord
  2
2D_SYMBOLES
 70
0
 62
7
  6
CONTINUOUS
370
-3
390
F
  0
LAYER
  5
209
100
AcDbSymbolTableRecord
100
AcDbLayerTableRecord
  2
2D_TOUS_ELEMENTS
 70
0
 62
7
  6
CONTINUOUS
370
-3
390
F
  0
ENDTAB
  0
TABLE
  2
STYLE
  5
3
100
AcDbSymbolTable
 70
1
  0
STYLE
  5
11
100
AcDbSymbolTableRecord
100
AcDbTextStyleTableRecord
  2
STANDARD
 70
0
 40
0.0
 41
0.85
 50
0.0
 71
0
 42
0.2
  3
txt
  4

  0
STYLE
  5
20A
100
AcDbSymbolTableRecord
100
AcDbTextStyleTableRecord
  2
TEXTSTYLE_1
 70
0
 40
0.0
 41
0.8
 50
0.0
 71
0
 42
0.2
  3
gdt
  4

  0
STYLE
  5
20B
100
AcDbSymbolTableRecord
100
AcDbTextStyleTableRecord
  2
TEXTSTYLE_2
 70
0
 40
0.0
 41
0.8
 50
0.0
 71
0
 42
0.2
  3
txt
  4

  0
STYLE
  5
20C
100
AcDbSymbolTableRecord
100
AcDbTextStyleTableRecord
  2
TEXTSTYLE_3
 70
0
 40
0.0
 41
1.0
 50
0.0
 71
0
 42
0.2
  3
gdt
  4

  0
STYLE
  5
20D
100
AcDbSymbolTableRecord
100
AcDbTextStyleTableRecord
  2
TEXTSTYLE_4
 70
0
 40
0.0
 41
0.8
 50
0.0
 71
0
 42
0.2
  3
txt
  4

  0
STYLE
  5
20E
100
AcDbSymbolTableRecord
100
AcDbTextStyleTableRecord
  2
TEXTSTYLE_5
 70
0
 40
0.0
 41
1.0
 50
0.0
 71
0
 42
0.2
  3
grotesq.ttf
  4

1001
ACAD
1000
Grotesque MT
1071
34
  0
ENDTAB
  0
TABLE
  2
VIEW
  5
6
100
AcDbSymbolTable
 70
0
  0
ENDTAB
  0
TABLE
  2
UCS
  5
7
100
AcDbSymbolTable
 70
0
  0
ENDTAB
  0
TABLE
  2
APPID
  5
9
100
AcDbSymbolTable
 70
1
  0
APPID
  5
20F
100
AcDbSymbolTableRecord
100
AcDbRegAppTableRecord
  2
ACAD
 70
0
  0
ENDTAB
  0
TABLE
  2
BLOCK_RECORD
  5
1
100
AcDbSymbolTable
 70
0
  0
BLOCK_RECORD
  5
210
100
AcDbSymbolTableRecord
100
AcDbBlockTableRecord
  2
*Model_Space
  0
BLOCK_RECORD
  5
211
100
AcDbSymbolTableRecord
100
AcDbBlockTableRecord
  2
*Paper_Space
  0
BLOCK_RECORD
  5
212
100
AcDbSymbolTableRecord
100
AcDbBlockTableRecord
  2
_OPEN
  0
BLOCK_RECORD
  5
213
100
AcDbSymbolTableRecord
100
AcDbBlockTableRecord
  2
XSEC_OPEN
  0
BLOCK_RECORD
  5
214
100
AcDbSymbolTableRecord
100
AcDbBlockTableRecord
  2
*D0
  0
BLOCK_RECORD
  5
215
100
AcDbSymbolTableRecord
100
AcDbBlockTableRecord
  2
LOGO_INSA_2014_BL1
  0
BLOCK_RECORD
  5
216
100
AcDbSymbolTableRecord
100
AcDbBlockTableRecord
  2
VUE_PROJETEE_BL0
  0
BLOCK_RECORD
  5
217
100
AcDbSymbolTableRecord
100
AcDbBlockTableRecord
  2
*T1
  0
ENDTAB
  0
TABLE
  2
DIMSTYLE
  5
A
100
AcDbSymbolTable
 70
1
100
AcDbDimStyleTable
 71
0
  0
DIMSTYLE
105
218
100
AcDbSymbolTableRecord
100
AcDbDimStyleTableRecord
  2
STANDARD
 70
0
  3

  4

 40
1.0
 41
3.5
 42
1.0
 43
0.38
 44
1.5
 45
0.0
 46
0.0
 47
0.001
 48
0.001
140
3.5
141
0.09
142
0.0
143
25.4
144
1.0
145
0.0
146
1.0
147
0.625
 71
1
 72
0
 73
0
 74
0
 75
0
 76
0
 77
1
 78
8
 79
2
170
0
171
2
172
0
173
0
174
0
175
0
176
0
177
0
178
0
270
2
179
3
271
3
272
3
273
2
274
2
275
0
280
0
281
0
282
0
283
1
284
8
285
0
286
0
287
3
288
0
340
11
278
44
341
212
342
212
343
212
344
212
  0
DIMSTYLE
105
219
100
AcDbSymbolTableRecord
100
AcDbDimStyleTableRecord
  2
DIMSTYLE_1
 70
0
  3

  4

 40
1.0
 41
3.5
 42
1.0
 43
0.38
 44
1.5
 45
0.0
 46
0.0
 47
0.001
 48
0.001
140
3.5
141
0.09
142
0.0
143
25.4
144
0.25
145
0.0
146
1.0
147
0.875
 71
0
 72
0
 73
0
 74
0
 75
0
 76
0
 77
1
 78
8
 79
2
170
0
171
2
172
0
173
0
174
0
175
0
176
0
177
0
178
0
270
2
179
3
271
3
272
3
273
2
274
2
275
0
280
0
281
0
282
0
283
1
284
8
285
0
286
0
287
3
288
0
340
11
278
44
341
212
342
212
343
212
344
212
  0
ENDTAB
  0
ENDSEC
  0
SECTION
  2
BLOCKS
  0
BLOCK
  5
20
100
AcDbEntity
  8
0
100
AcDbBlockBegin
  2
*Model_Space
 70
0
 10
0.0
 20
0.0
 30
0.0
  3
*Model_Space
  1

  0
ENDBLK
  5
21
100
AcDbEntity
  8
0
100
AcDbBlockEnd
  0
BLOCK
  5
1C
100
AcDbEntity
  8
0
100
AcDbBlockBegin
  2
*Paper_Space
 70
0
 10
0.0
 20
0.0
 30
0.0
  3
*Paper_Space
  1

  0
ENDBLK
  5
1D
100
AcDbEntity
  8
0
100
AcDbBlockEnd
  0
BLOCK
  5
21A
100
AcDbEntity
  8
0
100
AcDbBlockBegin
 62
2
  6
CONTINUOUS
  2
LOGO_INSA_2014_BL1
 70
64
 10
44.6890049837
 20
25.3197872608
  3
LOGO_INSA_2014_BL1
  1

  0
LINE
  5
21B
100
AcDbEntity
  8
0
100
AcDbLine
 62
4
  6
CONTINUOUS
 10
22.9999999994
 20
33.6326725338
 11
23.0
 21
17.0
  0
LINE
  5
21C
100
AcDbEntity
  8
0
100
AcDbLine
 62
4
  6
CONTINUOUS
 10
27.3910255489
 20
17.0000000002
 11
27.3910255483
 21
33.6326725339
  0
LINE
  5
21D
100
AcDbEntity
  8
0
100
AcDbLine
 62
4
  6
CONTINUOUS
 10
28.7216393516
 20
17.0000000002
 11
28.721639351
 21
33.632672534
  0
LINE
  5
21E
100
AcDbEntity
  8
0
100
AcDbLine
 62
4
  6
CONTINUOUS
 10
32.7800114495
 20
27.3787876614
 11
32.7800114498
 21
17.0000000004
  0
LINE
  5
21F
100
AcDbEntity
  8
0
100
AcDbLine
 62
4
  6
CONTINUOUS
 10
35.7738925059
 20
17.0000000005
 11
32.7800114495
 21
27.3787876614
  0
LINE
  5
220
100
AcDbEntity
  8
0
100
AcDbLine
 62
4
  6
CONTINUOUS
 10
36.5057300972
 20
23.2538848732
 11
36.5057300968
 21
33.6326725342
  0
LINE
  5
221
100
AcDbEntity
  8
0
100
AcDbLine
 62
4
  6
CONTINUOUS
 10
33.5118490407
 20
33.6326725341
 11
36.5057300972
 21
23.2538848732
  0
LINE
  5
222
100
AcDbEntity
  8
0
100
AcDbLine
 62
4
  6
CONTINUOUS
 10
40.564102195
 20
33.6326725344
 11
40.5641021956
 21
17.0000000006
  0
LINE
  5
223
100
AcDbEntity
  8
0
100
AcDbLine
 62
4
  6
CONTINUOUS
 10
40.5641021956
 20
17.0000000006
 11
35.7738925059
 21
17.0000000005
  0
LINE
  5
224
100
AcDbEntity
  8
0
100
AcDbLine
 62
4
  6
CONTINUOUS
 10
32.7800114498
 20
17.0000000004
 11
28.7216393516
 21
17.0000000002
  0
LINE
  5
225
100
AcDbEntity
  8
0
100
AcDbLine
 62
4
  6
CONTINUOUS
 10
23.0
 20
17.0
 11
27.3910255489
 21
17.0000000002
  0
LINE
  5
226
100
AcDbEntity
  8
0
100
AcDbLine
 62
4
  6
CONTINUOUS
 10
52.6726878002
 20
17.0000000011
 11
57.0637133491
 21
17.0000000012
  0
LINE
  5
227
100
AcDbEntity
  8
0
100
AcDbLine
 62
4
  6
CONTINUOUS
 10
61.5878002783
 20
17.0000000014
 11
66.378009968
 21
17.0000000016
  0
LINE
  5
228
100
AcDbEntity
  8
0
100
AcDbLine
 62
4
  6
CONTINUOUS
 10
56.6645292077
 20
33.632672535
 11
52.6726878002
 21
17.0000000011
  0
LINE
  5
229
100
AcDbEntity
  8
0
100
AcDbLine
 62
4
  6
CONTINUOUS
 10
59.3257568132
 20
30.3726687185
 11
58.1282043911
 21
23.0542928036
  0
LINE
  5
22A
100
AcDbEntity
  8
0
100
AcDbLine
 62
4
  6
CONTINUOUS
 10
57.0637133491
 20
17.0000000012
 11
57.5959588701
 21
20.1465102876
  0
LINE
  5
22B
100
AcDbEntity
  8
0
100
AcDbLine
 62
4
  6
CONTINUOUS
 10
57.5959588701
 20
20.1465102876
 11
61.0555547571
 21
20.1465102878
  0
LINE
  5
22C
100
AcDbEntity
  8
0
100
AcDbLine
 62
4
  6
CONTINUOUS
 10
41.4955318574
 20
21.8567403805
 11
45.5539039556
 21
21.8567403807
  0
LINE
  5
22D
100
AcDbEntity
  8
0
100
AcDbLine
 62
4
  6
CONTINUOUS
 10
61.0555547571
 20
20.1465102878
 11
61.5878002783
 21
17.0000000014
  0
LINE
  5
22E
100
AcDbEntity
  8
0
100
AcDbLine
 62
4
  6
CONTINUOUS
 10
60.5233092359
 20
23.0542928037
 11
59.3257568132
 21
30.3726687185
  0
LINE
  5
22F
100
AcDbEntity
  8
0
100
AcDbLine
 62
4
  6
CONTINUOUS
 10
58.1282043911
 20
23.0542928036
 11
60.5233092359
 21
23.0542928037
  0
LINE
  5
230
100
AcDbEntity
  8
0
100
AcDbLine
 62
4
  6
CONTINUOUS
 10
66.378009968
 20
17.0000000016
 11
61.9869844185
 21
33.6326725352
  0
LINE
  5
231
100
AcDbEntity
  8
0
100
AcDbLine
 62
4
  6
CONTINUOUS
 10
66.3780099679
 20
21.3910255505
 11
63.3175982212
 21
33.6326725352
  0
LINE
  5
232
100
AcDbEntity
  8
0
100
AcDbLine
 62
4
  6
CONTINUOUS
 10
66.3780099674
 20
33.6326725353
 11
66.3780099679
 21
21.3910255505
  0
LINE
  5
233
100
AcDbEntity
  8
0
100
AcDbLine
 62
4
  6
CONTINUOUS
 10
48.5477850114
 20
28.7759321548
 11
52.6061571096
 21
28.775932155
  0
LINE
  5
234
100
AcDbEntity
  8
0
100
AcDbLine
 62
4
  6
CONTINUOUS
 10
61.9869844185
 20
33.6326725352
 11
56.6645292077
 21
33.632672535
  0
LINE
  5
235
100
AcDbEntity
  8
0
100
AcDbLine
 62
4
  6
CONTINUOUS
 10
27.3910255483
 20
33.6326725339
 11
22.9999999994
 21
33.6326725338
  0
LINE
  5
236
100
AcDbEntity
  8
0
100
AcDbLine
 62
4
  6
CONTINUOUS
 10
28.721639351
 20
33.632672534
 11
33.5118490407
 21
33.6326725341
  0
LINE
  5
237
100
AcDbEntity
  8
0
100
AcDbLine
 62
4
  6
CONTINUOUS
 10
36.5057300968
 20
33.6326725342
 11
40.564102195
 21
33.6326725344
  0
LINE
  5
238
100
AcDbEntity
  8
0
100
AcDbLine
 62
4
  6
CONTINUOUS
 10
63.3175982212
 20
33.6326725352
 11
66.3780099674
 21
33.6326725353
  0
SPLINE
  5
239
100
AcDbEntity
  8
0
100
AcDbSpline
 62
4
  6
CONTINUOUS
 70
0
 71
3
 72
11
 73
7
 74
0
 42
0.0000001
 43
0.0000001
 44
0.0000000001
 40
0.0
 40
0.0
 40
0.0
 40
0.0
 40
0.220663478
 40
0.4984637685
 40
0.7365257419
 40
1.0
 40
1.0
 40
1.0
 40
1.0
 10
52.6061571096
 20
28.775932155
 30
0.0
 10
52.6479448268
 20
30.7983510735
 30
0.0
 10
51.5231187807
 20
33.5918121971
 30
0.0
 10
47.4919467538
 20
34.2656737904
 30
0.0
 10
42.6109611024
 20
33.368560953
 30
0.0
 10
41.6471409196
 20
30.6738952072
 30
0.0
 10
41.6121802754
 20
29.20443714
 30
0.0
  0
SPLINE
  5
23A
100
AcDbEntity
  8
0
100
AcDbSpline
 62
4
  6
CONTINUOUS
 70
0
 71
3
 72
12
 73
8
 74
0
 42
0.0000001
 43
0.0000001
 44
0.0000000001
 40
0.0
 40
0.0
 40
0.0
 40
0.0
 40
0.2030123658
 40
0.4910019166
 40
0.7448030436
 40
0.9845218882
 40
1.0
 40
1.0
 40
1.0
 40
1.0
 10
41.4955318574
 20
21.8567403805
 30
0.0
 10
41.3943571125
 20
19.9833517257
 30
0.0
 10
42.3605538307
 20
17.0371918216
 30
0.0
 10
46.6373246271
 20
16.4237122382
 30
0.0
 10
51.6953734792
 20
17.026531482
 30
0.0
 10
52.9612078785
 20
19.7075409072
 30
0.0
 10
53.0682649044
 20
21.1594529548
 30
0.0
 10
53.0728292922
 20
21.2477769962
 30
0.0
  0
SPLINE
  5
23B
100
AcDbEntity
  8
0
100
AcDbSpline
 62
4
  6
CONTINUOUS
 70
0
 71
3
 72
15
 73
11
 74
0
 42
0.0000001
 43
0.0000001
 44
0.0000000001
 40
0.0
 40
0.0
 40
0.0
 40
0.0
 40
0.0302938694
 40
0.258123638
 40
0.442200495
 40
0.6920297638
 40
0.79804405
 40
0.8991999151
 40
0.96583609
 40
1.0
 40
1.0
 40
1.0
 40
1.0
 10
41.6121802754
 20
29.20443714
 30
0.0
 10
41.6085002076
 20
29.0497573435
 30
0.0
 10
41.6216462039
 20
27.7266992537
 30
0.0
 10
42.274984169
 20
25.462854813
 30
0.0
 10
45.0865130852
 20
23.7530711119
 30
0.0
 10
47.8078618173
 20
23.2870901568
 30
0.0
 10
48.759857717
 20
21.125693574
 30
0.0
 10
48.4364070447
 20
19.8649560793
 30
0.0
 10
47.2997316494
 20
19.4331093432
 30
0.0
 10
46.7063016948
 20
19.4875218406
 30
0.0
 10
46.5171833111
 20
19.5501702133
 30
0.0
  0
SPLINE
  5
23C
100
AcDbEntity
  8
0
100
AcDbSpline
 62
4
  6
CONTINUOUS
 70
0
 71
3
 72
9
 73
5
 74
0
 42
0.0000001
 43
0.0000001
 44
0.0000000001
 40
0.0
 40
0.0
 40
0.0
 40
0.0
 40
0.5732454781
 40
1.0
 40
1.0
 40
1.0
 40
1.0
 10
46.5171833111
 20
19.5501702133
 30
0.0
 10
46.1767702204
 20
19.6629372841
 30
0.0
 10
45.650823584
 20
20.1095105199
 30
0.0
 10
45.5096707304
 20
21.2261459102
 30
0.0
 10
45.5539039556
 20
21.8567403807
 30
0.0
  0
SPLINE
  5
23D
100
AcDbEntity
  8
0
100
AcDbSpline
 62
4
  6
CONTINUOUS
 70
0
 71
3
 72
13
 73
9
 74
0
 42
0.0000001
 43
0.0000001
 44
0.0000000001
 40
0.0
 40
0.0
 40
0.0
 40
0.0
 40
0.2579347471
 40
0.4733272714
 40
0.735321825
 40
0.8247397895
 40
0.9126417891
 40
1.0
 40
1.0
 40
1.0
 40
1.0
 10
53.0728292922
 20
21.2477769962
 30
0.0
 10
53.1412951091
 20
22.5726376176
 30
0.0
 10
52.4705543347
 20
25.1125196623
 30
0.0
 10
49.3706118606
 20
27.0181421386
 30
0.0
 10
46.2611553274
 20
27.556415974
 30
0.0
 10
45.782094956
 20
29.7970985309
 30
0.0
 10
46.227029708
 20
30.9759281868
 30
0.0
 10
47.1411227193
 20
31.2457874833
 30
0.0
 10
47.5553627809
 20
31.1262893398
 30
0.0
  0
SPLINE
  5
23E
100
AcDbEntity
  8
0
100
AcDbSpline
 62
4
  6
CONTINUOUS
 70
0
 71
3
 72
9
 73
5
 74
0
 42
0.0000001
 43
0.0000001
 44
0.0000000001
 40
0.0
 40
0.0
 40
0.0
 40
0.0
 40
0.3519872425
 40
1.0
 40
1.0
 40
1.0
 40
1.0
 10
47.5553627809
 20
31.1262893398
 30
0.0
 10
47.7624828117
 20
31.0665402681
 30
0.0
 10
48.3215171213
 20
30.7163816783
 30
0.0
 10
48.599997521
 20
29.7254196298
 30
0.0
 10
48.5477850114
 20
28.7759321548
 30
0.0
  0
ENDBLK
  5
23F
100
AcDbEntity
  8
0
  6
BYBLOCK
 62
0
100
AcDbBlockEnd
  0
BLOCK
  5
240
100
AcDbEntity
  8
0
100
AcDbBlockBegin
 62
2
  6
CONTINUOUS
  2
VUE_PROJETEE_BL0
 70
64
 10
32.0
 20
54.0
  3
VUE_PROJETEE_BL0
  1

  0
LINE
  5
241
100
AcDbEntity
  8
DEFAULT_1
100
AcDbLine
 62
7
  6
CENTER
 10
38.0
 20
59.0
 11
38.0
 21
49.0
  0
LWPOLYLINE
  5
242
100
AcDbEntity
  8
0
100
AcDbPolyline
 62
7
  6
CONTINUOUS
 90
2
 70
0
 43
0.35
 10
22.0
 20
56.0
 10
22.0
 20
52.0
  0
LWPOLYLINE
  5
243
100
AcDbEntity
  8
0
100
AcDbPolyline
 62
7
  6
CONTINUOUS
 90
2
 70
0
 43
0.35
 10
22.0
 20
52.0
 10
29.0
 20
50.0
  0
LWPOLYLINE
  5
244
100
AcDbEntity
  8
0
100
AcDbPolyline
 62
7
  6
CONTINUOUS
 90
2
 70
0
 43
0.35
 10
29.0
 20
50.0
 10
29.0
 20
58.0
  0
LWPOLYLINE
  5
245
100
AcDbEntity
  8
0
100
AcDbPolyline
 62
7
  6
CONTINUOUS
 90
2
 70
0
 43
0.35
 10
29.0
 20
58.0
 10
22.0
 20
56.0
  0
LWPOLYLINE
  5
246
100
AcDbEntity
  8
0
100
AcDbPolyline
 62
7
  6
CONTINUOUS
 90
2
 70
1
 43
0.35
 10
34.0
 20
54.0
 42
1.0
 10
42.0
 20
54.0
 42
1.0
  0
LWPOLYLINE
  5
247
100
AcDbEntity
  8
0
100
AcDbPolyline
 62
7
  6
CONTINUOUS
 90
2
 70
1
 43
0.35
 10
36.0
 20
54.0
 42
1.0
 10
40.0
 20
54.0
 42
1.0
  0
LINE
  5
248
100
AcDbEntity
  8
DEFAULT_1
100
AcDbLine
 62
7
  6
CENTER
 10
33.0
 20
54.0
 11
43.0
 21
54.0
  0
LINE
  5
249
100
AcDbEntity
  8
DEFAULT_1
100
AcDbLine
 62
7
  6
CENTER
 10
30.0
 20
54.0
 11
21.0
 21
54.0
  0
ENDBLK
  5
24A
100
AcDbEntity
  8
0
  6
BYBLOCK
 62
0
100
AcDbBlockEnd
  0
BLOCK
  5
24B
100
AcDbEntity
  8
0
100
AcDbBlockBegin
  2
_OPEN
 70
64
 10
0.0
 20
0.0
  3
_OPEN
  1

  0
LINE
  5
24C
100
AcDbEntity
  8
0
  6
BYBLOCK
 62
0
100
AcDbLine
 10
0.0
 20
0.0
 11
-1.0
 21
0.2142857143
  0
LINE
  5
24D
100
AcDbEntity
  8
0
  6
BYBLOCK
 62
0
100
AcDbLine
 10
-1.0
 20
-0.2142857143
 11
0.0
 21
0.0
  0
LINE
  5
24E
100
AcDbEntity
  8
0
  6
BYBLOCK
 62
0
100
AcDbLine
 10
-1.0
 20
0.0
 11
0.0
 21
0.0
  0
ENDBLK
  5
24F
100
AcDbEntity
  8
0
  6
BYBLOCK
 62
0
100
AcDbBlockEnd
  0
BLOCK
  5
250
100
AcDbEntity
  8
0
100
AcDbBlockBegin
  2
XSEC_OPEN
 70
64
 10
0.0
 20
0.0
  3
XSEC_OPEN
  1

  0
LINE
  5
251
100
AcDbEntity
  8
0
  6
BYBLOCK
 62
0
100
AcDbLine
 10
0.0
 20
0.0
 11
-1.0
 21
0.2916666667
  0
LINE
  5
252
100
AcDbEntity
  8
0
  6
BYBLOCK
 62
0
100
AcDbLine
 10
-1.0
 20
-0.2916666667
 11
0.0
 21
0.0
  0
LINE
  5
253
100
AcDbEntity
  8
0
  6
BYBLOCK
 62
0
100
AcDbLine
 10
-1.0
 20
0.0
 11
0.0
 21
0.0
  0
ENDBLK
  5
254
100
AcDbEntity
  8
0
  6
BYBLOCK
 62
0
100
AcDbBlockEnd
  0
BLOCK
  5
255
100
AcDbEntity
  8
0
100
AcDbBlockBegin
 62
2
  6
CONTINUOUS
  2
*D0
 70
65
 10
0.0
 20
0.0
  3
*D0
  1

  0
MTEXT
  5
256
100
AcDbEntity
  8
0
100
AcDbMText
 62
2
  6
CONTINUOUS
  7
TEXTSTYLE_3
 71
2
 72
1
 10
131.9063928517
 20
227.9669632456
 30
0.0
 11
0.0
 21
1.0
 31
0.0
 73
2
 44
0.9
  1
{\fgdt;n}\ftxt;{\W0.85;6}
 40
3.5
 41
11.2451171875
  0
LINE
  5
257
100
AcDbEntity
  8
0
100
AcDbLine
 62
2
  6
CONTINUOUS
 10
129.2813928517
 20
215.9669632456
 11
137.7813928517
 21
215.9669632456
  0
LINE
  5
258
100
AcDbEntity
  8
0
100
AcDbLine
 62
2
  6
CONTINUOUS
 10
129.2813928517
 20
239.9669632456
 11
137.7813928517
 21
239.9669632456
  0
LINE
  5
259
100
AcDbEntity
  8
0
100
AcDbLine
 62
2
  6
CONTINUOUS
 10
136.2813928517
 20
215.9669632456
 11
136.2813928517
 21
227.9669632456
  0
LINE
  5
25A
100
AcDbEntity
  8
0
100
AcDbLine
 62
2
  6
CONTINUOUS
 10
136.2813928517
 20
239.9669632456
 11
136.2813928517
 21
227.9669632456
  0
INSERT
  5
25B
100
AcDbEntity
  8
0
100
AcDbBlockReference
 62
2
  6
CONTINUOUS
  2
_OPEN
 10
136.2813928517
 20
215.9669632456
 41
3.5
 42
3.5
 43
3.5
 50
270.0
  0
INSERT
  5
25C
100
AcDbEntity
  8
0
100
AcDbBlockReference
 62
2
  6
CONTINUOUS
  2
_OPEN
 10
136.2813928517
 20
239.9669632456
 41
3.5
 42
3.5
 43
3.5
 50
90.0
  0
ENDBLK
  5
25D
100
AcDbEntity
  8
0
  6
BYBLOCK
 62
0
100
AcDbBlockEnd
  0
BLOCK
  5
25E
100
AcDbEntity
  8
0
100
AcDbBlockBegin
  2
*T1
 70
1
 10
0.0
 20
0.0
  3
*T1
  1

  0
LINE
  5
25F
100
AcDbEntity
  8
0
100
AcDbLine
 62
2
  6
CONTINUOUS
 10
0.0
 20
0.0
 11
180.0
 21
0.0
  0
LINE
  5
260
100
AcDbEntity
  8
0
100
AcDbLine
 62
2
  6
CONTINUOUS
 10
0.0
 20
0.0
 11
0.0
 21
-45.0
  0
LINE
  5
261
100
AcDbEntity
  8
0
100
AcDbLine
 62
2
  6
CONTINUOUS
 10
0.0
 20
-10.0
 11
180.0
 21
-10.0
  0
LINE
  5
262
100
AcDbEntity
  8
0
100
AcDbLine
 62
2
  6
CONTINUOUS
 10
0.0
 20
-20.0
 11
180.0
 21
-20.0
  0
LINE
  5
263
100
AcDbEntity
  8
0
100
AcDbLine
 62
2
  6
CONTINUOUS
 10
130.0
 20
-30.0
 11
180.0
 21
-30.0
  0
LINE
  5
264
100
AcDbEntity
  8
0
100
AcDbLine
 62
2
  6
CONTINUOUS
 10
0.0
 20
-45.0
 11
180.0
 21
-45.0
  0
LINE
  5
265
100
AcDbEntity
  8
0
100
AcDbLine
 62
2
  6
CONTINUOUS
 10
25.0
 20
0.0
 11
25.0
 21
-20.0
  0
LINE
  5
266
100
AcDbEntity
  8
0
100
AcDbLine
 62
2
  6
CONTINUOUS
 10
50.0
 20
0.0
 11
50.0
 21
-45.0
  0
LINE
  5
267
100
AcDbEntity
  8
0
100
AcDbLine
 62
2
  6
CONTINUOUS
 10
130.0
 20
0.0
 11
130.0
 21
-45.0
  0
LINE
  5
268
100
AcDbEntity
  8
0
100
AcDbLine
 62
2
  6
CONTINUOUS
 10
160.0
 20
-30.0
 11
160.0
 21
-45.0
  0
LINE
  5
269
100
AcDbEntity
  8
0
100
AcDbLine
 62
2
  6
CONTINUOUS
 10
180.0
 20
0.0
 11
180.0
 21
-45.0
  0
MTEXT
  5
26A
100
AcDbEntity
  8
0
100
AcDbMText
 62
2
  6
CONTINUOUS
  7
TEXTSTYLE_4
 71
1
 72
1
 10
26.2
 20
-0.625
 30
0.0
 11
1.0
 21
0.0
 31
0.0
 73
2
 44
1.2
  1
ISO 8015\PISO 2768 mK\PISO13715
 40
1.75
 41
29.763671875
  0
MTEXT
  5
26B
100
AcDbEntity
  8
0
100
AcDbMText
 62
2
  6
CONTINUOUS
  7
TEXTSTYLE_4
 71
1
 72
1
 10
51.2
 20
-2.0
 30
0.0
 11
1.0
 21
0.0
 31
0.0
 73
2
 44
1.2
  1
NOM - PRENOM / SPECIALITE\PLucie WABARTHA / FIPMIK5
 40
2.0
 41
77.8125
  0
MTEXT
  5
26C
100
AcDbEntity
  8
0
100
AcDbMText
 62
2
  6
CONTINUOUS
  7
TEXTSTYLE_4
 71
1
 72
1
 10
131.2
 20
-2.0
 30
0.0
 11
1.0
 21
0.0
 31
0.0
 73
2
 44
1.2
  1
NOM DE LA MISE EN PLAN\P320-BOSSARD_BN619_VIS_M10X20_L
 40
2.0
 41
100.109375
  0
MTEXT
  5
26D
100
AcDbEntity
  8
0
100
AcDbMText
 62
2
  6
CONTINUOUS
  7
TEXTSTYLE_5
 71
2
 72
1
 10
12.5
 20
-13.25
 30
0.0
 11
1.0
 21
0.0
 31
0.0
 73
2
 44
0.9
  1
PTC Creo 
 40
3.5
 41
47.4185185185
  0
MTEXT
  5
26E
100
AcDbEntity
  8
0
100
AcDbMText
 62
2
  6
CONTINUOUS
  7
TEXTSTYLE_4
 71
1
 72
1
 10
26.2
 20
-12.0
 30
0.0
 11
1.0
 21
0.0
 31
0.0
 73
2
 44
1.2
  1
FORMAT A4\PECHELLE 4
 40
2.0
 41
32.40625
  0
MTEXT
  5
26F
100
AcDbEntity
  8
0
100
AcDbMText
 62
2
  6
CONTINUOUS
  7
TEXTSTYLE_4
 71
1
 72
1
 10
51.2
 20
-12.0
 30
0.0
 11
1.0
 21
0.0
 31
0.0
 73
2
 44
1.2
  1
DATE DE CREATION : à modifier\PINDICE DE MISE A JOUR : 001
 40
2.0
 41
84.203125
  0
MTEXT
  5
270
100
AcDbEntity
  8
0
100
AcDbMText
 62
2
  6
CONTINUOUS
  7
TEXTSTYLE_4
 71
1
 72
1
 10
131.2
 20
-12.0
 30
0.0
 11
1.0
 21
0.0
 31
0.0
 73
2
 44
1.2
  1
NOM DU MODELE DE TYPE PART\P320-BOSSARD_BN619_VIS_M10X20_L
 40
2.0
 41
100.109375
  0
MTEXT
  5
271
100
AcDbEntity
  8
0
100
AcDbMText
 62
2
  6
CONTINUOUS
  7
TEXTSTYLE_5
 71
1
 72
1
 10
51.2
 20
-24.0
 30
0.0
 11
1.0
 21
0.0
 31
0.0
 73
2
 44
0.9
  1
DESIGNATION DU COMPOSANT
 40
2.0
 41
90.7555555556
  0
MTEXT
  5
272
100
AcDbEntity
  8
0
100
AcDbMText
 62
2
  6
CONTINUOUS
  7
TEXTSTYLE_4
 71
1
 72
1
 10
131.2
 20
-22.0
 30
0.0
 11
1.0
 21
0.0
 31
0.0
 73
2
 44
1.2
  1
MATERIAU\PEN_STEEL_INSA
 40
2.0
 41
41.1875
  0
MTEXT
  5
273
100
AcDbEntity
  8
0
100
AcDbMText
 62
2
  6
CONTINUOUS
  7
TEXTSTYLE_4
 71
2
 72
1
 10
90.0
 20
-35.5
 30
0.0
 11
1.0
 21
0.0
 31
0.0
 73
2
 44
0.9
  1
Vis à téton M10x20
 40
4.0
 41
98.3125
  0
MTEXT
  5
274
100
AcDbEntity
  8
0
100
AcDbMText
 62
2
  6
CONTINUOUS
  7
TEXTSTYLE_4
 71
1
 72
1
 10
131.2
 20
-32.5
 30
0.0
 11
1.0
 21
0.0
 31
0.0
 73
2
 44
1.2
  1
VOL. : 1.1741975e+03[.1] cm3\P \PMASSE/ 9.1587404e-03[.1] kg
 40
2.0
 41
80.890625
  0
MTEXT
  5
275
100
AcDbEntity
  8
0
100
AcDbMText
 62
2
  6
CONTINUOUS
  7
TEXTSTYLE_4
 71
2
 72
1
 10
170.0
 20
-33.0
 30
0.0
 11
1.0
 21
0.0
 31
0.0
 73
2
 44
1.2
  1
FEUILLE\P1/1
 40
3.0
 41
31.1484375
  0
ENDBLK
  5
276
100
AcDbEntity
  8
0
  6
BYBLOCK
 62
0
100
AcDbBlockEnd
  0
ENDSEC
  0
SECTION
  2
ENTITIES
  0
MTEXT
  5
277
100
AcDbEntity
  8
0
100
AcDbMText
 62
7
  6
CONTINUOUS
  7
TEXTSTYLE_2
 71
2
 72
1
 10
14.0
 20
142.0
 30
0.0
 11
0.0
 21
1.0
 31
0.0
 73
2
 44
0.9
  1
Droits de reproduction réservés selon loi du 11.03.1957\PINSA Strasbourg - 24, Boulevard de la Victoire - 67 084 Strasbourg cedex
 40
2.0
 41
115.2
  0
INSERT
  5
278
100
AcDbEntity
  8
0
100
AcDbBlockReference
 62
2
  6
CONTINUOUS
  2
VUE_PROJETEE_BL0
 10
32.0
 20
54.0
  0
INSERT
  5
279
100
AcDbEntity
  8
0
100
AcDbBlockReference
 62
2
  6
CONTINUOUS
  2
LOGO_INSA_2014_BL1
 10
44.6890049837
 20
25.3197872608
  0
IMAGE
  5
27A
100
AcDbEntity
  8
0
100
AcDbRasterImage
 62
7
  6
CONTINUOUS
 10
142.2258003825
 20
78.5203091348
 30
0.0
 11
0.0846666667
 21
0.0
 31
0.0
 12
0.0
 22
0.0846666667
 32
0.0
 13
496.0
 23
296.0
340
       2F1
 70
11
280
0
281
50
282
50
283
0
360
       2EB
 71
1
 91
2
 14
-0.5
 24
-0.5
 14
495.5
 24
295.5
  0
HATCH
  5
27B
100
AcDbEntity
  8
0
100
AcDbHatch
 62
2
  6
CONTINUOUS
 10
0.0
 20
0.0
 30
0.0
210
0.0
220
0.0
230
1.0
  2
B
 70
0
 71
0
 91
1
 92
1
 93
23
 72
1
 10
128.2813928517
 20
237.9669632456
 11
128.2813928517
 21
217.9669632456
 72
1
 10
128.2813928517
 20
217.9669632456
 11
126.2813928517
 21
215.9669632456
 72
1
 10
126.2813928517
 20
215.9669632456
 11
107.3489542016
 21
215.9669632456
 72
2
 10
107.3489542016
 20
213.9669632456
 40
2.0
 50
-147.0774528139
 51
-90.0
 73
0
 72
1
 10
105.6701421054
 20
215.0539728802
 11
101.6725425854
 21
208.879953611
 72
2
 10
99.9937304892
 20
209.9669632456
 40
2.0
 50
270.0
 51
327.077452814
 73
1
 72
1
 10
51.9613928517
 20
207.9669632456
 11
99.9937304892
 21
207.9669632456
 72
1
 10
48.2813928517
 20
211.6469632456
 11
51.9613928517
 21
207.9669632456
 72
1
 10
48.2813928517
 20
216.8059876358
 11
48.2813928517
 21
211.6469632456
 72
1
 10
48.2813928517
 20
216.8059876358
 11
49.4423684615
 21
217.9669632456
 72
1
 10
49.4423684615
 20
217.9669632456
 11
72.2813928517
 21
217.9669632456
 72
1
 10
72.2813928517
 20
217.9669632456
 11
78.0548955436
 21
227.9669632456
 72
1
 10
72.2813928517
 20
237.9669632456
 11
78.0548955436
 21
227.9669632456
 72
1
 10
49.4423684615
 20
237.9669632456
 11
72.2813928517
 21
237.9669632456
 72
1
 10
48.2813928517
 20
239.1279388554
 11
49.4423684615
 21
237.9669632456
 72
1
 10
48.2813928517
 20
244.2869632456
 11
48.2813928517
 21
239.1279388554
 72
1
 10
48.2813928517
 20
244.2869632456
 11
51.9613928517
 21
247.9669632456
 72
1
 10
51.9613928517
 20
247.9669632456
 11
99.9937304892
 21
247.9669632456
 72
2
 10
99.9937304892
 20
245.9669632456
 40
2.0
 50
-90.0
 51
-32.9225471861
 73
0
 72
1
 10
105.6701421054
 20
240.879953611
 11
101.6725425854
 21
247.0539728802
 72
2
 10
107.3489542016
 20
241.9669632456
 40
2.0
 50
212.9225471861
 51
270.0
 73
1
 72
1
 10
126.2813928517
 20
239.9669632456
 11
107.3489542016
 21
239.9669632456
 72
1
 10
128.2813928517
 20
237.9669632456
 11
126.2813928517
 21
239.9669632456
 97
0
 75
0
 76
0
 52
45.0
 41
5.7830456135
 77
0
 78
1
 53
45.0
 43
0.0
 44
0.0
 45
-4.0892307692
 46
4.0892307692
 79
0
 98
1
 10
0.0
 20
0.0
  0
MTEXT
  5
27C
100
AcDbEntity
  8
0
100
AcDbMText
 62
7
  6
CONTINUOUS
  7
STANDARD
 71
1
 72
1
 10
24.7227449032
 20
134.2884892857
 30
0.0
 11
1.0
 21
0.0
 31
0.0
 73
2
 44
0.9
  1
B
 40
5.0
 41
6.6796875
  0
LEADER
  5
27D
100
AcDbEntity
  8
0
100
AcDbLeader
 62
7
  6
CONTINUOUS
  3
STANDARD
 71
1
 72
0
 73
3
 75
0
 76
2
 10
30.1914949032
 20
144.3884892857
 30
0.0
 10
30.1914949032
 20
126.7884892857
 30
0.0
1001
ACAD
1000
DSTYLE
1002
{
1070
77
1070
0
1070
341
1005
213
1070
41
1040
6.0
1002
}
  0
MTEXT
  5
27E
100
AcDbEntity
  8
0
100
AcDbMText
 62
7
  6
CONTINUOUS
  7
STANDARD
 71
1
 72
1
 10
147.3869158009
 20
134.2884892857
 30
0.0
 11
1.0
 21
0.0
 31
0.0
 73
2
 44
0.9
  1
B
 40
5.0
 41
6.6796875
  0
LEADER
  5
27F
100
AcDbEntity
  8
0
100
AcDbLeader
 62
7
  6
CONTINUOUS
  3
STANDARD
 71
1
 72
0
 73
3
 75
0
 76
2
 10
146.3712908009
 20
144.3884892857
 30
0.0
 10
146.3712908009
 20
126.7884892857
 30
0.0
1001
ACAD
1000
DSTYLE
1002
{
1070
77
1070
0
1070
341
1005
213
1070
41
1040
6.0
1002
}
  0
DIMENSION
  5
280
100
AcDbEntity
  8
0
100
AcDbDimension
 62
2
  6
CONTINUOUS
  2
*D0
 10
136.2813928517
 20
239.9669632456
 11
136.2813928517
 21
227.9669632456
 70
160
 71
2
 72
2
 41
0.9
 42
6.0
  1
%%c<>
  3
DIMSTYLE_1
100
AcDbAlignedDimension
 13
128.2813928517
 23
215.9669632456
 14
128.2813928517
 24
239.9669632456
 50
90.0
100
AcDbRotatedDimension
  0
ACAD_TABLE
  5
281
100
AcDbEntity
  8
0
 62
2
  6
CONTINUOUS
100
AcDbBlockReference
  2
*T1
 10
19.9973216215
 20
59.004240744
 30
0.0
100
AcDbTable
342
       2F2
343
217
 11
1.0
 21
0.0
 31
0.0
 90
22
 91
4
 92
5
 93
0
 94
0
 95
0
 96
0
141
10.0
141
10.0
141
10.0
141
15.0
142
25.0
142
25.0
142
80.0
142
30.0
142
20.0
171
1
172
0
173
0
174
0
175
1
176
1
 91
33
178
0
145
0.0
301
CELL_VALUE
 90
4
  1
 
304
ACVALUE_END
170
1
140
3.0
171
1
172
0
173
0
174
0
175
1
176
1
 91
49
178
0
145
0.0
  7
TEXTSTYLE_4
301
CELL_VALUE
 90
4
  1
ISO 8015\PISO 2768 mK\PISO13715
304
ACVALUE_END
170
4
140
1.75
171
1
172
0
173
0
174
0
175
1
176
1
 91
49
178
0
145
0.0
  7
TEXTSTYLE_4
301
CELL_VALUE
 90
4
  1
NOM - PRENOM / SPECIALITE\PLucie WABARTHA / FIPMIK5
304
ACVALUE_END
170
4
140
2.0
171
1
172
0
173
0
174
0
175
2
176
1
 91
49
178
0
145
0.0
  7
TEXTSTYLE_4
301
CELL_VALUE
 90
4
  1
NOM DE LA MISE EN PLAN\P320-BOSSARD_BN619_VIS_M10X20_L
304
ACVALUE_END
170
4
140
2.0
171
1
172
0
173
1
174
0
175
1
176
1
 91
1
178
0
145
0.0
170
1
171
1
172
0
173
0
174
0
175
1
176
1
 91
49
178
0
145
0.0
  7
TEXTSTYLE_5
301
CELL_VALUE
 90
4
  1
PTC Creo 
304
ACVALUE_END
170
5
140
3.5
171
1
172
0
173
0
174
0
175
1
176
1
 91
49
178
0
145
0.0
  7
TEXTSTYLE_4
301
CELL_VALUE
 90
4
  1
FORMAT A4\PECHELLE 4
304
ACVALUE_END
170
4
140
2.0
171
1
172
0
173
0
174
0
175
1
176
1
 91
49
178
0
145
0.0
  7
TEXTSTYLE_4
301
CELL_VALUE
 90
4
  1
DATE DE CREATION : à modifier\PINDICE DE MISE A JOUR : 001
304
ACVALUE_END
170
4
140
2.0
171
1
172
0
173
0
174
0
175
2
176
1
 91
49
178
0
145
0.0
  7
TEXTSTYLE_4
301
CELL_VALUE
 90
4
  1
NOM DU MODELE DE TYPE PART\P320-BOSSARD_BN619_VIS_M10X20_L
304
ACVALUE_END
170
4
140
2.0
171
1
172
0
173
1
174
0
175
1
176
1
 91
1
178
0
145
0.0
170
1
171
1
172
0
173
0
174
0
175
2
176
2
 91
33
178
0
145
0.0
301
CELL_VALUE
 90
4
  1
 
304
ACVALUE_END
170
1
140
3.0
171
1
172
0
173
1
174
0
175
1
176
1
 91
1
178
0
145
0.0
170
1
171
1
172
0
173
0
174
0
175
1
176
1
 91
49
178
0
145
0.0
  7
TEXTSTYLE_5
301
CELL_VALUE
 90
4
  1
DESIGNATION DU COMPOSANT
304
ACVALUE_END
170
4
140
2.0
171
1
172
0
173
0
174
0
175
2
176
1
 91
49
178
0
145
0.0
  7
TEXTSTYLE_4
301
CELL_VALUE
 90
4
  1
MATERIAU\PEN_STEEL_INSA
304
ACVALUE_END
170
4
140
2.0
171
1
172
0
173
1
174
0
175
1
176
1
 91
1
178
0
145
0.0
170
1
171
1
172
0
173
1
174
0
175
1
176
1
 91
1
178
0
145
0.0
170
1
171
1
172
0
173
1
174
0
175
1
176
1
 91
1
178
0
145
0.0
170
1
171
1
172
0
173
0
174
0
175
1
176
1
 91
49
178
0
145
0.0
  7
TEXTSTYLE_4
301
CELL_VALUE
 90
4
  1
Vis à téton M10x20
304
ACVALUE_END
170
5
140
4.0
171
1
172
0
173
0
174
0
175
1
176
1
 91
49
178
0
145
0.0
  7
TEXTSTYLE_4
301
CELL_VALUE
 90
4
  1
VOL. : 1.1741975e+03[.1] cm3\P \PMASSE/ 9.1587404e-03[.1] kg
304
ACVALUE_END
170
4
140
2.0
171
1
172
0
173
0
174
0
175
1
176
1
 91
49
178
0
145
0.0
  7
TEXTSTYLE_4
301
CELL_VALUE
 90
4
  1
FEUILLE\P1/1
304
ACVALUE_END
170
5
140
3.0
  0
MTEXT
  5
282
100
AcDbEntity
  8
0
100
AcDbMText
 62
2
  6
CONTINUOUS
  7
STANDARD
 71
2
 72
1
 10
87.1677533049
 20
193.7169632456
 30
0.0
 11
1.0
 21
0.0
 31
0.0
 73
2
 44
0.9
  1
COUPE \H5.0;B-B
 40
3.5
 41
44.05078125
  0
MTEXT
  5
283
100
AcDbEntity
  8
0
100
AcDbMText
 62
2
  6
CONTINUOUS
  7
STANDARD
 71
2
 72
1
 10
163.2436085009
 20
74.9874875575
 30
0.0
 11
1.0
 21
0.0
 31
0.0
 73
2
 44
0.9
  1
ECHELLE 2
 40
3.5
 41
36.6064453125
  0
LINE
  5
284
100
AcDbEntity
  8
0
100
AcDbLine
 62
7
  6
CONTINUOUS
 10
0.0
 20
0.0
 11
210.0
 21
0.0
  0
LWPOLYLINE
  5
285
100
AcDbEntity
  8
0
100
AcDbPolyline
 62
7
  6
CONTINUOUS
 90
2
 70
0
 43
0.1500000038
 10
20.0
 20
14.0
 10
200.0
 20
14.0
  0
LINE
  5
286
100
AcDbEntity
  8
0
100
AcDbLine
 62
7
  6
CONTINUOUS
 10
0.0
 20
0.0
 11
0.0
 21
297.0
  0
LWPOLYLINE
  5
287
100
AcDbEntity
  8
0
100
AcDbPolyline
 62
7
  6
CONTINUOUS
 90
2
 70
0
 43
0.1500000038
 10
20.0
 20
14.0
 10
20.0
 20
283.0
  0
LWPOLYLINE
  5
288
100
AcDbEntity
  8
0
100
AcDbPolyline
 62
7
  6
CONTINUOUS
 90
2
 70
0
 43
0.1500000038
 10
20.0
 20
59.0
 10
200.0
 20
59.0
  0
LWPOLYLINE
  5
289
100
AcDbEntity
  8
0
100
AcDbPolyline
 62
7
  6
CONTINUOUS
 90
2
 70
0
 43
0.1500000038
 10
0.0
 20
144.0
 10
14.0
 20
144.0
  0
LWPOLYLINE
  5
28A
100
AcDbEntity
  8
0
100
AcDbPolyline
 62
7
  6
CONTINUOUS
 90
2
 70
0
 43
0.1500000038
 10
200.0
 20
14.0
 10
200.0
 20
283.0
  0
LINE
  5
28B
100
AcDbEntity
  8
0
100
AcDbLine
 62
7
  6
CONTINUOUS
 10
210.0
 20
0.0
 11
210.0
 21
297.0
  0
LINE
  5
28C
100
AcDbEntity
  8
2D_ENTITES
100
AcDbLine
 62
8
  6
PHANTOM
 10
219.0
 20
356.4
 11
219.0
 21
-59.4
  0
LWPOLYLINE
  5
28D
100
AcDbEntity
  8
0
100
AcDbPolyline
 62
7
  6
CONTINUOUS
 90
2
 70
0
 43
0.1500000038
 10
20.0
 20
283.0
 10
200.0
 20
283.0
  0
LINE
  5
28E
100
AcDbEntity
  8
0
100
AcDbLine
 62
7
  6
CONTINUOUS
 10
0.0
 20
297.0
 11
210.0
 21
297.0
  0
LINE
  5
28F
100
AcDbEntity
  8
0
100
AcDbLine
 62
7
  6
CONTINUOUS
 10
48.2813928517
 20
211.6469632456
 11
48.2813928517
 21
244.2869632456
  0
LINE
  5
290
100
AcDbEntity
  8
0
100
AcDbLine
 62
7
  6
CONTINUOUS
 10
48.2813928517
 20
244.2869632456
 11
51.9613928517
 21
247.9669632456
  0
LINE
  5
291
100
AcDbEntity
  8
0
100
AcDbLine
 62
7
  6
CONTINUOUS
 10
48.2813928517
 20
211.6469632456
 11
51.9613928517
 21
207.9669632456
  0
LINE
  5
292
100
AcDbEntity
  8
0
100
AcDbLine
 62
7
  6
CONTINUOUS
 10
48.2813928517
 20
216.8059876358
 11
49.4423684615
 21
217.9669632456
  0
LINE
  5
293
100
AcDbEntity
  8
0
100
AcDbLine
 62
7
  6
CONTINUOUS
 10
51.9613928517
 20
207.9669632456
 11
99.9937304892
 21
207.9669632456
  0
LINE
  5
294
100
AcDbEntity
  8
0
100
AcDbLine
 62
7
  6
CONTINUOUS
 10
48.2813928517
 20
239.1279388554
 11
49.4423684615
 21
237.9669632456
  0
LINE
  5
295
100
AcDbEntity
  8
0
100
AcDbLine
 62
7
  6
CONTINUOUS
 10
72.2813928517
 20
237.9669632456
 11
72.2813928517
 21
217.9669632456
  0
LINE
  5
296
100
AcDbEntity
  8
0
100
AcDbLine
 62
2
  6
CONTINUOUS
 10
104.7613928517
 20
211.6469632456
 11
48.2813928517
 21
211.6469632456
  0
LINE
  5
297
100
AcDbEntity
  8
0
100
AcDbLine
 62
7
  6
CONTINUOUS
 10
126.2813928517
 20
215.9669632456
 11
107.3489542016
 21
215.9669632456
  0
LINE
  5
298
100
AcDbEntity
  8
0
100
AcDbLine
 62
7
  6
CONTINUOUS
 10
72.2813928517
 20
217.9669632456
 11
78.0548955436
 21
227.9669632456
  0
LINE
  5
299
100
AcDbEntity
  8
0
100
AcDbLine
 62
7
  6
CONTINUOUS
 10
48.2813928517
 20
217.9669632456
 11
72.2813928517
 21
217.9669632456
  0
LINE
  5
29A
100
AcDbEntity
  8
0
100
AcDbLine
 62
7
  6
CONTINUOUS
 10
72.2813928517
 20
237.9669632456
 11
78.0548955436
 21
227.9669632456
  0
LINE
  5
29B
100
AcDbEntity
  8
02___PRT_ALL_AXES
100
AcDbLine
 62
7
  6
CENTER
 10
133.2813928517
 20
227.9669632456
 11
39.2813928517
 21
227.9669632456
  0
LINE
  5
29C
100
AcDbEntity
  8
0
100
AcDbLine
 62
7
  6
CONTINUOUS
 10
48.2813928517
 20
227.9669632456
 11
72.2813928517
 21
227.9669632456
  0
LINE
  5
29D
100
AcDbEntity
  8
0
100
AcDbLine
 62
7
  6
CONTINUOUS
 10
48.2813928517
 20
237.9669632456
 11
72.2813928517
 21
237.9669632456
  0
LINE
  5
29E
100
AcDbEntity
  8
0
100
AcDbLine
 62
7
  6
CONTINUOUS
 10
126.2813928517
 20
239.9669632456
 11
107.3489542016
 21
239.9669632456
  0
LINE
  5
29F
100
AcDbEntity
  8
0
100
AcDbLine
 62
7
  6
CONTINUOUS
 10
104.7613928517
 20
244.2869632456
 11
104.7613928517
 21
211.6469632456
  0
LINE
  5
2A0
100
AcDbEntity
  8
0
100
AcDbLine
 62
2
  6
CONTINUOUS
 10
104.7613928517
 20
244.2869632456
 11
48.2813928517
 21
244.2869632456
  0
LINE
  5
2A1
100
AcDbEntity
  8
0
100
AcDbLine
 62
7
  6
CONTINUOUS
 10
51.9613928517
 20
247.9669632456
 11
99.9937304892
 21
247.9669632456
  0
LINE
  5
2A2
100
AcDbEntity
  8
0
100
AcDbLine
 62
7
  6
CONTINUOUS
 10
105.6701421054
 20
215.0539728802
 11
101.6725425854
 21
208.879953611
  0
LINE
  5
2A3
100
AcDbEntity
  8
0
100
AcDbLine
 62
7
  6
CONTINUOUS
 10
105.6701421054
 20
240.879953611
 11
101.6725425854
 21
247.0539728802
  0
LINE
  5
2A4
100
AcDbEntity
  8
0
100
AcDbLine
 62
7
  6
CONTINUOUS
 10
128.2813928517
 20
217.9669632456
 11
126.2813928517
 21
215.9669632456
  0
LINE
  5
2A5
100
AcDbEntity
  8
0
100
AcDbLine
 62
7
  6
CONTINUOUS
 10
128.2813928517
 20
237.9669632456
 11
126.2813928517
 21
239.9669632456
  0
LINE
  5
2A6
100
AcDbEntity
  8
0
100
AcDbLine
 62
7
  6
CONTINUOUS
 10
128.2813928517
 20
237.9669632456
 11
128.2813928517
 21
217.9669632456
  0
LINE
  5
2A7
100
AcDbEntity
  8
0
100
AcDbLine
 62
7
  6
CONTINUOUS
 10
161.0025559387
 20
227.9669632456
 11
166.7760586306
 21
237.9669632456
  0
LINE
  5
2A8
100
AcDbEntity
  8
0
100
AcDbLine
 62
7
  6
CONTINUOUS
 10
166.7760586306
 20
217.9669632456
 11
178.3230640144
 21
217.9669632456
  0
LINE
  5
2A9
100
AcDbEntity
  8
0
100
AcDbLine
 62
7
  6
CONTINUOUS
 10
166.7760586306
 20
217.9669632456
 11
161.0025559387
 21
227.9669632456
  0
LINE
  5
2AA
100
AcDbEntity
  8
02___PRT_ALL_AXES
100
AcDbLine
 62
7
  6
CENTER
 10
172.5495613225
 20
227.9669632456
 11
172.5495613225
 21
223.9665632456
  0
LINE
  5
2AB
100
AcDbEntity
  8
02___PRT_ALL_AXES
100
AcDbLine
 62
7
  6
CENTER
 10
172.5495613225
 20
223.9665632456
 11
172.5495613225
 21
203.9669632456
  0
LINE
  5
2AC
100
AcDbEntity
  8
02___PRT_ALL_AXES
100
AcDbLine
 62
7
  6
CENTER
 10
172.5495613225
 20
227.9669632456
 11
172.5495613225
 21
231.9673632456
  0
LINE
  5
2AD
100
AcDbEntity
  8
02___PRT_ALL_AXES
100
AcDbLine
 62
7
  6
CENTER
 10
172.5495613225
 20
231.9673632456
 11
172.5495613225
 21
234.757207148
  0
LINE
  5
2AE
100
AcDbEntity
  8
02___PRT_ALL_AXES
100
AcDbLine
 62
7
  6
CENTER
 10
172.5495613225
 20
234.757207148
 11
172.5495613225
 21
241.9669632456
  0
LINE
  5
2AF
100
AcDbEntity
  8
02___PRT_ALL_AXES
100
AcDbLine
 62
7
  6
CENTER
 10
172.5495613225
 20
241.9669632456
 11
172.5495613225
 21
245.9669632456
  0
LINE
  5
2B0
100
AcDbEntity
  8
02___PRT_ALL_AXES
100
AcDbLine
 62
7
  6
CENTER
 10
172.5495613225
 20
245.9669632456
 11
172.5495613225
 21
246.7870642583
  0
LINE
  5
2B1
100
AcDbEntity
  8
02___PRT_ALL_AXES
100
AcDbLine
 62
7
  6
CENTER
 10
172.5495613225
 20
246.7870642583
 11
172.5495613225
 21
251.9669632456
  0
LINE
  5
2B2
100
AcDbEntity
  8
02___PRT_ALL_AXES
100
AcDbLine
 62
7
  6
CENTER
 10
172.5495613225
 20
227.9669632456
 11
168.5491613225
 21
227.9669632456
  0
LINE
  5
2B3
100
AcDbEntity
  8
02___PRT_ALL_AXES
100
AcDbLine
 62
7
  6
CENTER
 10
168.5491613225
 20
227.9669632456
 11
165.7593174201
 21
227.9669632456
  0
LINE
  5
2B4
100
AcDbEntity
  8
02___PRT_ALL_AXES
100
AcDbLine
 62
7
  6
CENTER
 10
165.7593174201
 20
227.9669632456
 11
158.5495613225
 21
227.9669632456
  0
LINE
  5
2B5
100
AcDbEntity
  8
02___PRT_ALL_AXES
100
AcDbLine
 62
7
  6
CENTER
 10
158.5495613225
 20
227.9669632456
 11
154.5495613225
 21
227.9669632456
  0
LINE
  5
2B6
100
AcDbEntity
  8
02___PRT_ALL_AXES
100
AcDbLine
 62
7
  6
CENTER
 10
154.5495613225
 20
227.9669632456
 11
153.7294603098
 21
227.9669632456
  0
LINE
  5
2B7
100
AcDbEntity
  8
02___PRT_ALL_AXES
100
AcDbLine
 62
7
  6
CENTER
 10
153.7294603098
 20
227.9669632456
 11
148.5495613225
 21
227.9669632456
  0
LINE
  5
2B8
100
AcDbEntity
  8
02___PRT_ALL_AXES
100
AcDbLine
 62
7
  6
CENTER
 10
172.5495613225
 20
227.9669632456
 11
176.5499613225
 21
227.9669632456
  0
LINE
  5
2B9
100
AcDbEntity
  8
02___PRT_ALL_AXES
100
AcDbLine
 62
7
  6
CENTER
 10
176.5499613225
 20
227.9669632456
 11
196.5495613225
 21
227.9669632456
  0
LINE
  5
2BA
100
AcDbEntity
  8
0
100
AcDbLine
 62
7
  6
CONTINUOUS
 10
178.3230640144
 20
217.9669632456
 11
184.0965667063
 21
227.9669632456
  0
LINE
  5
2BB
100
AcDbEntity
  8
0
100
AcDbLine
 62
7
  6
CONTINUOUS
 10
166.7760586306
 20
237.9669632456
 11
178.3230640144
 21
237.9669632456
  0
LINE
  5
2BC
100
AcDbEntity
  8
0
100
AcDbLine
 62
7
  6
CONTINUOUS
 10
184.0965667063
 20
227.9669632456
 11
178.3230640144
 21
237.9669632456
  0
LINE
  5
2BD
100
AcDbEntity
  8
0
100
AcDbLine
 62
7
  6
CONTINUOUS
 10
48.2813928517
 20
128.0684892857
 11
48.2813928517
 21
160.7084892857
  0
LINE
  5
2BE
100
AcDbEntity
  8
02___PRT_ALL_AXES
100
AcDbLine
 62
7
  6
CONTINUOUS
 10
48.2813928517
 20
128.0684892857
 11
48.2813928517
 21
160.7084892857
  0
LINE
  5
2BF
100
AcDbEntity
  8
02___PRT_ALL_AXES
100
AcDbLine
 62
7
  6
CONTINUOUS
 10
48.2813928517
 20
160.7084892857
 11
51.9613928517
 21
164.3884892857
  0
LINE
  5
2C0
100
AcDbEntity
  8
02___PRT_ALL_AXES
100
AcDbLine
 62
7
  6
CONTINUOUS
 10
48.2813928517
 20
128.0684892857
 11
51.9613928517
 21
124.3884892857
  0
LINE
  5
2C1
100
AcDbEntity
  8
02___PRT_ALL_AXES
100
AcDbLine
 62
7
  6
CONTINUOUS
 10
51.9613928517
 20
124.3884892857
 11
51.9613928517
 21
164.3884892857
  0
LINE
  5
2C2
100
AcDbEntity
  8
02___PRT_ALL_AXES
100
AcDbLine
 62
7
  6
CONTINUOUS
 10
51.9613928517
 20
124.3884892857
 11
99.9937304892
 21
124.3884892857
  0
LINE
  5
2C3
100
AcDbEntity
  8
0
100
AcDbLine
 62
2
  6
CONTINUOUS
 10
104.7613928517
 20
128.0684892857
 11
48.2813928517
 21
128.0684892857
  0
LINE
  5
2C4
100
AcDbEntity
  8
0
100
AcDbLine
 62
7
  6
CONTINUOUS
 10
126.2813928517
 20
132.3884892857
 11
107.3489542016
 21
132.3884892857
  0
LINE
  5
2C5
100
AcDbEntity
  8
02___PRT_ALL_AXES
100
AcDbLine
 62
7
  6
CENTER
 10
133.2813928517
 20
144.3884892857
 11
39.2813928517
 21
144.3884892857
  0
LWPOLYLINE
  5
2C6
100
AcDbEntity
  8
DEFAULT_1
100
AcDbPolyline
 62
7
  6
CENTER
 90
2
 70
0
 43
0.7000000038
 10
30.1914949032
 20
144.3884892857
 10
40.1914949032
 20
144.3884892857
  0
LINE
  5
2C7
100
AcDbEntity
  8
DEFAULT_1
100
AcDbLine
 62
9
  6
CENTER
 10
40.1914949032
 20
144.3884892857
 11
136.3712908009
 21
144.3884892857
  0
LWPOLYLINE
  5
2C8
100
AcDbEntity
  8
DEFAULT_1
100
AcDbPolyline
 62
7
  6
CENTER
 90
2
 70
0
 43
0.7000000038
 10
136.3712908009
 20
144.3884892857
 10
146.3712908009
 20
144.3884892857
  0
LINE
  5
2C9
100
AcDbEntity
  8
0
100
AcDbLine
 62
9
  6
CONTINUOUS
 10
99.9937304892
 20
124.3884892857
 11
99.9937304892
 21
164.3884892857
  0
LINE
  5
2CA
100
AcDbEntity
  8
0
100
AcDbLine
 62
7
  6
CONTINUOUS
 10
126.2813928517
 20
156.3884892857
 11
107.3489542016
 21
156.3884892857
  0
LINE
  5
2CB
100
AcDbEntity
  8
0
100
AcDbLine
 62
9
  6
CONTINUOUS
 10
101.6725425854
 20
125.3014796511
 11
101.6725425854
 21
163.4754989203
  0
LINE
  5
2CC
100
AcDbEntity
  8
0
100
AcDbLine
 62
7
  6
CONTINUOUS
 10
104.7613928517
 20
128.0684892857
 11
104.7613928517
 21
160.7084892857
  0
LINE
  5
2CD
100
AcDbEntity
  8
0
100
AcDbLine
 62
9
  6
CONTINUOUS
 10
105.6701421054
 20
131.4754989203
 11
105.6701421054
 21
157.3014796511
  0
LINE
  5
2CE
100
AcDbEntity
  8
0
100
AcDbLine
 62
2
  6
CONTINUOUS
 10
104.7613928517
 20
160.7084892857
 11
48.2813928517
 21
160.7084892857
  0
LINE
  5
2CF
100
AcDbEntity
  8
0
100
AcDbLine
 62
9
  6
CONTINUOUS
 10
107.3489542016
 20
132.3884892857
 11
107.3489542016
 21
156.3884892857
  0
LINE
  5
2D0
100
AcDbEntity
  8
02___PRT_ALL_AXES
100
AcDbLine
 62
7
  6
CONTINUOUS
 10
51.9613928517
 20
164.3884892857
 11
99.9937304892
 21
164.3884892857
  0
LINE
  5
2D1
100
AcDbEntity
  8
0
100
AcDbLine
 62
7
  6
CONTINUOUS
 10
105.6701421054
 20
131.4754989203
 11
101.6725425854
 21
125.3014796511
  0
LINE
  5
2D2
100
AcDbEntity
  8
0
100
AcDbLine
 62
7
  6
CONTINUOUS
 10
105.6701421054
 20
157.3014796511
 11
101.6725425854
 21
163.4754989203
  0
LINE
  5
2D3
100
AcDbEntity
  8
0
100
AcDbLine
 62
7
  6
CONTINUOUS
 10
128.2813928517
 20
134.3884892857
 11
126.2813928517
 21
132.3884892857
  0
LINE
  5
2D4
100
AcDbEntity
  8
0
100
AcDbLine
 62
7
  6
CONTINUOUS
 10
128.2813928517
 20
154.3884892857
 11
126.2813928517
 21
156.3884892857
  0
LINE
  5
2D5
100
AcDbEntity
  8
0
100
AcDbLine
 62
7
  6
CONTINUOUS
 10
126.2813928517
 20
156.3884892857
 11
126.2813928517
 21
132.3884892857
  0
LINE
  5
2D6
100
AcDbEntity
  8
0
100
AcDbLine
 62
7
  6
CONTINUOUS
 10
128.2813928517
 20
154.3884892857
 11
128.2813928517
 21
134.3884892857
  0
ARC
  5
2D7
100
AcDbEntity
  8
0
100
AcDbCircle
 62
7
  6
CONTINUOUS
 10
99.9937304892
 20
209.9669632456
 40
2.0
100
AcDbArc
 50
270.0
 51
327.077452814
  0
ARC
  5
2D8
100
AcDbEntity
  8
0
100
AcDbCircle
 62
7
  6
CONTINUOUS
 10
99.9937304892
 20
245.9669632456
 40
2.0
100
AcDbArc
 50
32.9225471861
 51
90.0
  0
ARC
  5
2D9
100
AcDbEntity
  8
0
100
AcDbCircle
 62
7
  6
CONTINUOUS
 10
107.3489542016
 20
213.9669632456
 40
2.0
100
AcDbArc
 50
90.0
 51
147.0774528139
  0
ARC
  5
2DA
100
AcDbEntity
  8
0
100
AcDbCircle
 62
7
  6
CONTINUOUS
 10
107.3489542016
 20
241.9669632456
 40
2.0
100
AcDbArc
 50
212.9225471861
 51
270.0
  0
CIRCLE
  5
2DB
100
AcDbEntity
  8
02___PRT_ALL_AXES
100
AcDbCircle
 62
7
  6
CONTINUOUS
 10
172.5495613225
 20
227.9669632456
 40
20.0
  0
ARC
  5
2DC
100
AcDbEntity
  8
0
100
AcDbCircle
 62
2
  6
CONTINUOUS
 10
172.5495613225
 20
227.9669632456
 40
16.32
100
AcDbArc
 50
255.0
 51
195.0
  0
CIRCLE
  5
2DD
100
AcDbEntity
  8
02___PRT_ALL_AXES
100
AcDbCircle
 62
7
  6
CONTINUOUS
 10
172.5495613225
 20
227.9669632456
 40
16.32
  0
ARC
  5
2DE
100
AcDbEntity
  8
0
100
AcDbCircle
 62
7
  6
CONTINUOUS
 10
172.5495613225
 20
227.9669632456
 40
11.1609756098
100
AcDbArc
 50
183.6344601512
 51
236.3655398488
  0
ARC
  5
2DF
100
AcDbEntity
  8
0
100
AcDbCircle
 62
7
  6
CONTINUOUS
 10
172.5495613225
 20
227.9669632456
 40
11.1609756098
100
AcDbArc
 50
243.6344601512
 51
296.3655398488
  0
ARC
  5
2E0
100
AcDbEntity
  8
0
100
AcDbCircle
 62
7
  6
CONTINUOUS
 10
172.5495613225
 20
227.9669632456
 40
11.1609756098
100
AcDbArc
 50
123.6344601512
 51
176.3655398488
  0
ARC
  5
2E1
100
AcDbEntity
  8
0
100
AcDbCircle
 62
7
  6
CONTINUOUS
 10
172.5495613225
 20
227.9669632456
 40
11.1609756098
100
AcDbArc
 50
63.6344601512
 51
116.3655398488
  0
ARC
  5
2E2
100
AcDbEntity
  8
0
100
AcDbCircle
 62
7
  6
CONTINUOUS
 10
172.5495613225
 20
227.9669632456
 40
11.1609756098
100
AcDbArc
 50
303.6344601512
 51
356.3655398488
  0
ARC
  5
2E3
100
AcDbEntity
  8
0
100
AcDbCircle
 62
7
  6
CONTINUOUS
 10
172.5495613225
 20
227.9669632456
 40
11.1609756098
100
AcDbArc
 50
3.6344601512
 51
56.3655398488
  0
CIRCLE
  5
2E4
100
AcDbEntity
  8
0
100
AcDbCircle
 62
7
  6
CONTINUOUS
 10
172.5495613225
 20
227.9669632456
 40
10.0
  0
ARC
  5
2E5
100
AcDbEntity
  8
0
100
AcDbCircle
 62
7
  6
CONTINUOUS
 10
99.9937304892
 20
162.3884892857
 40
2.0
100
AcDbArc
 50
32.9225471861
 51
90.0
  0
ARC
  5
2E6
100
AcDbEntity
  8
0
100
AcDbCircle
 62
7
  6
CONTINUOUS
 10
99.9937304892
 20
126.3884892857
 40
2.0
100
AcDbArc
 50
270.0
 51
327.0774528139
  0
ARC
  5
2E7
100
AcDbEntity
  8
0
100
AcDbCircle
 62
7
  6
CONTINUOUS
 10
107.3489542016
 20
158.3884892857
 40
2.0
100
AcDbArc
 50
212.9225471861
 51
270.0
  0
ARC
  5
2E8
100
AcDbEntity
  8
0
100
AcDbCircle
 62
7
  6
CONTINUOUS
 10
107.3489542016
 20
130.3884892857
 40
2.0
100
AcDbArc
 50
90.0
 51
147.0774528139
  0
SPLINE
  5
2E9
100
AcDbEntity
  8
0
100
AcDbSpline
 62
7
  6
CONTINUOUS
 70
0
 71
3
 72
19
 73
15
 74
0
 42
0.0000001
 43
0.0000001
 44
0.0000000001
 40
0.0
 40
0.0
 40
0.0
 40
0.0
 40
0.1264481728
 40
0.2517935868
 40
0.314096943
 40
0.3761965131
 40
0.4381378737
 40
0.5
 40
0.5618621262
 40
0.6238034868
 40
0.6859030568
 40
0.748206413
 40
0.8735518272
 40
1.0
 40
1.0
 40
1.0
 40
1.0
 10
48.2813928517
 20
227.25946047
 30
0.0
 10
48.4540398354
 20
226.9227842871
 30
0.0
 10
48.772488568
 20
226.238849673
 30
0.0
 10
49.0844981299
 20
225.3500970945
 30
0.0
 10
49.2670421179
 20
224.6249526504
 30
0.0
 10
49.3672089532
 20
224.0759936376
 30
0.0
 10
49.4286626789
 20
223.5226486163
 30
0.0
 10
49.4491074113
 20
222.9669632459
 30
0.0
 10
49.428662679
 20
222.4112778757
 30
0.0
 10
49.3672089534
 20
221.8579328548
 30
0.0
 10
49.2670421186
 20
221.3089738421
 30
0.0
 10
49.0844981294
 20
220.5838293978
 30
0.0
 10
48.7724885686
 20
219.6950768184
 30
0.0
 10
48.4540398353
 20
219.011142204
 30
0.0
 10
48.2813928517
 20
218.6744660212
 30
0.0
  0
SPLINE
  5
2EA
100
AcDbEntity
  8
0
100
AcDbSpline
 62
7
  6
CONTINUOUS
 70
0
 71
3
 72
19
 73
15
 74
0
 42
0.0000001
 43
0.0000001
 44
0.0000000001
 40
0.0
 40
0.0
 40
0.0
 40
0.0
 40
0.1264481728
 40
0.2517935868
 40
0.314096943
 40
0.3761965131
 40
0.4381378737
 40
0.5
 40
0.5618621262
 40
0.6238034868
 40
0.6859030568
 40
0.748206413
 40
0.8735518272
 40
1.0
 40
1.0
 40
1.0
 40
1.0
 10
48.2813928517
 20
237.25946047
 30
0.0
 10
48.4540398354
 20
236.9227842871
 30
0.0
 10
48.772488568
 20
236.238849673
 30
0.0
 10
49.0844981299
 20
235.3500970945
 30
0.0
 10
49.2670421179
 20
234.6249526504
 30
0.0
 10
49.3672089532
 20
234.0759936376
 30
0.0
 10
49.4286626789
 20
233.5226486163
 30
0.0
 10
49.4491074113
 20
232.9669632459
 30
0.0
 10
49.428662679
 20
232.4112778757
 30
0.0
 10
49.3672089534
 20
231.8579328548
 30
0.0
 10
49.2670421186
 20
231.3089738421
 30
0.0
 10
49.0844981294
 20
230.5838293978
 30
0.0
 10
48.7724885686
 20
229.6950768184
 30
0.0
 10
48.4540398353
 20
229.011142204
 30
0.0
 10
48.2813928517
 20
228.6744660212
 30
0.0
  0
ENDSEC
  0
SECTION
  2
OBJECTS
  0
DICTIONARY
  5
C
100
AcDbDictionary
280
0
281
1
  3
ACAD_GROUP
350
D
  3
ACAD_MLINESTYLE
350
17
  3
ACAD_LAYOUT
350
1A
  3
ACAD_PLOTSETTINGS
350
19
  3
ACAD_PLOTSTYLENAME
350
E
  3
ACAD_IMAGE_DICT
350
       2EC
  3
ACAD_IMAGE_VARS
350
       2ED
  3
ACAD_TABLESTYLE
350
       2EE
  0
IMAGEDEF_REACTOR
  5
2EB
100
AcDbRasterImageDefReactor
 90
2
330
27A
  0
DICTIONARY
  5
D
102
{ACAD_REACTORS
330
C
102
}
100
AcDbDictionary
280
0
281
1
  0
ACDBDICTIONARYWDFLT
  5
E
102
{ACAD_REACTORS
330
C
102
}
100
AcDbDictionary
281
1
  3
Normal
350
F
100
AcDbDictionaryWithDefault
340
F
  0
DICTIONARY
  5
2EC
330
C
100
AcDbDictionary
281
1
  3
320-bossard_bn619_vis_m10x20_l_img_1
350
       2F1
  0
RASTERVARIABLES
  5
2ED
330
C
100
AcDbRasterVariables
 90
0
 70
0
 71
1
 72
1
  0
DICTIONARY
  5
17
102
{ACAD_REACTORS
330
C
102
}
100
AcDbDictionary
280
0
281
1
  3
Standard
350
18
  0
DICTIONARY
  5
2EE
330
C
100
AcDbDictionary
281
1
  3
Standard
350
       2F2
  3
Standard1
350
       2F3
  0
DICTIONARY
  5
19
102
{ACAD_REACTORS
330
C
102
}
100
AcDbDictionary
281
1
  0
DICTIONARY
  5
1A
102
{ACAD_REACTORS
330
C
102
}
100
AcDbDictionary
281
1
  3
Model
350
2EF
  3
Layout1
350
2F0
  0
ACDBPLACEHOLDER
  5
F
102
{ACAD_REACTORS
330
E
102
}
  0
MLINESTYLE
  5
18
102
{ACAD_REACTORS
330
17
102
}
100
AcDbMlineStyle
  2
STANDARD
 70
0
  3

 62
256
 51
90.0
 52
90.0
 71
2
 49
0.5
 62
256
  6
BYLAYER
 49
-0.5
 62
256
  6
BYLAYER
  0
LAYOUT
  5
2EF
102
{ACAD_REACTORS
330
1A
102
}
100
AcDbPlotSettings
  1

  2
none_device
  4

  6

 40
0.0
 41
0.0
 42
0.0
 43
0.0
 44
210.0
 45
297.0
 46
0.0
 47
0.0
 48
0.0
 49
0.0
140
0.0
141
0.0
142
1.0
143
1.0
 70
1024
 72
1
 73
0
 74
0
  7

 75
0
147
1.0
148
0.0
149
0.0
100
AcDbLayout
  1
Model
 70
0
 71
0
 10
0.0
 20
0.0
 11
210.0
 21
297.0
 12
0.0
 22
0.0
 32
0.0
 14
0.0
 24
0.0
 34
0.0
 15
0.0
 25
0.0
 35
0.0
146
0.0
 13
0.0
 23
0.0
 33
0.0
 16
1.0
 26
0.0
 36
0.0
 17
0.0
 27
1.0
 37
0.0
 76
0
330
210
345
0
346
0
  0
LAYOUT
  5
2F0
102
{ACAD_REACTORS
330
1A
102
}
100
AcDbPlotSettings
  1

  2
none_device
  4

  6

 40
0.0
 41
0.0
 42
0.0
 43
0.0
 44
210.0
 45
297.0
 46
0.0
 47
0.0
 48
0.0
 49
0.0
140
0.0
141
0.0
142
1.0
143
1.0
 70
0
 72
1
 73
0
 74
0
  7

 75
0
147
1.0
148
0.0
149
0.0
100
AcDbLayout
  1
Layout1
 70
0
 71
1
 10
0.0
 20
0.0
 11
210.0
 21
297.0
 12
0.0
 22
0.0
 32
0.0
 14
0.0
 24
0.0
 34
0.0
 15
0.0
 25
0.0
 35
0.0
146
0.0
 13
0.0
 23
0.0
 33
0.0
 16
1.0
 26
0.0
 36
0.0
 17
0.0
 27
1.0
 37
0.0
 76
0
330
211
345
0
346
0
  0
IMAGEDEF
  5
2F1
102
{ACAD_REACTORS
330
2EC
330
2EB
102
}
100
AcDbRasterImageDef
 90
0
  1
320-bossard_bn619_vis_m10x20_l_img_1.png
 10
496.0
 20
296.0
 11
0.0846666667
 21
0.0846666667
280
1
281
0
  0
TABLESTYLE
  5
2F2
102
{ACAD_REACTORS
330
2EE
330
281
102
}
330
2EE
100
AcDbTableStyle
  3
Standard
 70
0
 71
0
 40
0.06
 41
0.06
280
1
281
1
  7
Standard
140
0.18
170
1
 62
0
 63
7
283
0
  7
Standard
140
0.18
170
1
 62
0
 63
7
283
0
  7
Standard
140
0.18
170
1
 62
0
 63
7
283
0
  0
TABLESTYLE
  5
2F3
102
{ACAD_REACTORS
330
2EE
102
}
330
2EE
100
AcDbTableStyle
  3
Standard1
 70
1
 71
0
 40
0.06
 41
0.06
280
1
281
1
  7
Standard
140
0.18
170
1
 62
0
 63
7
283
0
  7
Standard
140
0.18
170
1
 62
0
 63
7
283
0
  7
Standard
140
0.18
170
1
 62
0
 63
7
283
0
  0
ENDSEC
  0
EOF
